<?xml version="1.0" standalone="no"?>
<!DOCTYPE svg PUBLIC "-//W3C//DTD SVG 20010904//EN"
 "http://www.w3.org/TR/2001/REC-SVG-20010904/DTD/svg10.dtd">
<svg version="1.0" xmlns="http://www.w3.org/2000/svg"
 width="700.000000pt" height="700.000000pt" viewBox="0 0 700.000000 700.000000"
 preserveAspectRatio="xMidYMid meet">
<metadata>
Created by potrace 1.11, written by Peter Selinger 2001-2013
</metadata>
<g transform="translate(0.000000,700.000000) scale(0.100000,-0.100000)"
fill="#000000" stroke="none">
<path d="M2120 3820 l0 -2340 538 2 537 3 5 239 5 239 44 -57 c66 -85 232
-239 326 -301 225 -150 464 -212 779 -202 234 7 357 36 541 127 417 206 718
665 811 1236 21 133 30 519 15 666 -59 568 -310 1030 -704 1297 -79 54 -246
128 -344 155 -138 37 -265 50 -427 43 -355 -14 -626 -129 -871 -371 -56 -56
-118 -121 -138 -146 l-37 -45 0 898 0 897 -540 0 -540 0 0 -2340z m1948 314
c271 -55 448 -262 522 -611 27 -126 38 -414 21 -568 -45 -431 -232 -696 -536
-760 -90 -19 -240 -19 -330 0 -219 46 -394 215 -474 460 -57 171 -66 245 -66
515 1 215 4 258 23 348 68 315 206 504 427 588 122 45 277 56 413 28z"/>
</g>
</svg>
